:version 1.10
:name ASF
:units
  mass 1
  length 1
  angle deg
:documentation
  ASF file generated by Kaydara
:root
  axis xyz
  order  tx ty tz rx ry rz
  position 0 0 0
  orientation 0 0 0
:bonedata
  begin
    id 1
    name RightUpLegDummy
    direction -0.718183 -0.695806 0.00816078
    length 4.904
    axis 0 0 0 xyz
  end
  begin
    id 2
    name RightUpLeg
    direction -0.00334265 -0.999142 0.0412837
    length 17.4976
    axis -0.59612 0.00940841 -0.192072 xyz
    dof rx ry rz
  end
  begin
    id 3
    name RightLeg
    direction 0.000365068 -0.988824 -0.149089
    length 16.5821
    axis 6.58657 0.0604092 -0.318554 xyz
    dof rx ry rz
  end
  begin
    id 4
    name RightFoot
    direction 0.00079069 -0.460991 0.887405
    length 3.77069
    axis 0.000105557 -0.120464 -0.188919 xyz
    dof rx ry rz
  end
  begin
    id 5
    name RightToes
    direction 0.00124768 -0.014065 0.9999
    length 3.85082
    axis 0.00053932 0.542178 -0.142707 xyz
    dof rx ry rz
  end
  begin
    id 6
    name SpineDummy
    direction 8.3039e-015 1 4.58682e-016
    length 4.6813
    axis 0 0 0 xyz
  end
  begin
    id 7
    name Spine
    direction 4.12799e-006 0.999988 0.00494944
    length 10.1015
    axis -0.00149944 0.000129667 -0.000235877 xyz
    dof rx ry rz
  end
  begin
    id 8
    name Spine1
    direction 0 0 0
    length 0
    axis -0.00160567 0.000129431 -0.000308381 xyz
    dof rx ry rz
  end
  begin
    id 9
    name HEadDummy
    direction 5.38513e-006 0.999999 0.00127044
    length 3.43865
    axis -0.00160567 0.000129431 -0.000308381 xyz
  end
  begin
    id 10
    name HEad
    direction -0.0226495 0.980942 0.192974
    length 5.12695
    axis -0.00160642 -0.114462 -0.000307946 xyz
    dof rx ry rz
  end
  begin
    id 11
    name LeftShoulder1Dummy
    direction 0.99889 -0.0402564 -0.0244456
    length 3.5433
    axis -0.00160567 0.000129431 -0.000308381 xyz
  end
  begin
    id 12
    name LeftShoulder1
    direction 0.999464 -0.00142945 0.0326977
    length 4.05031
    axis 0.393425 -0.0796525 -0.0507861 xyz
    dof rx ry rz
  end
  begin
    id 13
    name LeftArm
    direction 0.998564 -0.000899612 -0.053557
    length 10.3537
    axis -22.9476 0.126974 0.960871 xyz
    dof rx ry rz
  end
  begin
    id 14
    name LeftForeArm
    direction 0.998903 0.00865904 0.0460121
    length 8.70632
    axis -9.91856 -0.0656997 -0.178106 xyz
    dof rx ry rz
  end
  begin
    id 15
    name LeftHand
    direction 0.992938 -0.0411687 0.11126
    length 5.32135
    axis -0.00981066 -0.00340928 0.18486 xyz
    dof rx ry rz
  end
  begin
    id 16
    name RightShoulderDummy
    direction -0.998891 -0.0402456 -0.0244411
    length 3.5433
    axis -0.00160567 0.000129431 -0.000308381 xyz
  end
  begin
    id 17
    name RightShoulder
    direction -0.999353 -0.00388479 0.0357579
    length 4.05031
    axis 1.48787 0.256014 0.157284 xyz
    dof rx ry rz
  end
  begin
    id 18
    name RightArm
    direction -0.998583 -0.000660455 -0.0532032
    length 10.3947
    axis -22.4211 -0.109147 -0.943573 xyz
    dof rx ry rz
  end
  begin
    id 19
    name RightForeArm
    direction -0.998898 0.00868588 0.0461311
    length 8.68355
    axis -9.92343 0.0658342 0.178556 xyz
    dof rx ry rz
  end
  begin
    id 20
    name RightHand
    direction -0.992843 -0.0414545 0.112004
    length 5.28593
    axis -0.00982288 0.00332907 -0.185539 xyz
    dof rx ry rz
  end
  begin
    id 21
    name LeftUpLegDummy
    direction 0.718183 -0.695806 0.00816078
    length 4.904
    axis 0 0 0 xyz
  end
  begin
    id 22
    name LeftUpLeg
    direction 0.00445374 -0.999139 0.0412407
    length 17.4976
    axis -0.593655 -0.0138231 0.255969 xyz
    dof rx ry rz
  end
  begin
    id 23
    name LeftLeg
    direction -0.00154847 -0.988829 -0.149046
    length 16.5821
    axis 6.5841 -0.0555156 0.250722 xyz
    dof rx ry rz
  end
  begin
    id 24
    name LeftFoot
    direction -0.00417678 -0.460985 0.887398
    length 3.77069
    axis 5.53694e-005 4.88088e-005 -0.000136194 xyz
    dof rx ry rz
  end
  begin
    id 25
    name LeftToes
    direction 0.00818061 -0.00485256 0.999955
    length 3.85048
    axis 6.41179e-005 4.88477e-005 -0.000136145 xyz
    dof rx ry rz
  end
:hierarchy
  begin
    root RightUpLegDummy SpineDummy LeftUpLegDummy
    RightUpLegDummy RightUpLeg
    RightUpLeg RightLeg
    RightLeg RightFoot
    RightFoot RightToes
    SpineDummy Spine
    Spine Spine1
    Spine1 HEadDummy LeftShoulder1Dummy RightShoulderDummy
    HEadDummy HEad
    LeftShoulder1Dummy LeftShoulder1
    LeftShoulder1 LeftArm
    LeftArm LeftForeArm
    LeftForeArm LeftHand
    RightShoulderDummy RightShoulder
    RightShoulder RightArm
    RightArm RightForeArm
    RightForeArm RightHand
    LeftUpLegDummy LeftUpLeg
    LeftUpLeg LeftLeg
    LeftLeg LeftFoot
    LeftFoot LeftToes
  end

:SAMPLES-PER-SECOND 30
:FULLY-SPECIFIED
:DEGREES
90
root  -59.1186 39.0437 0.211243 -125.061 81.6578 -127.081
RightUpLeg  -15.9667 5.74848 9.82108
RightLeg  16.3738 -0.847011 -2.8719
RightFoot  -4.55704 0.225022 -3.00564
RightToes  -6.40286e-010 -1.59028e-015 9.93923e-017
Spine  -3.34051 -1.09768 9.37561
Spine1  9.15255 -1.34472 1.47329
HEad  -12.1554 -3.24565 1.59036
LeftShoulder1  9.93923e-017 0 1.22299e-017
LeftArm  18.8169 41.9016 -82.0986
LeftForeArm  -33.1945 -20.2929 3.67463
LeftHand  0.822012 5.7315 -1.37562
RightShoulder  1.98785e-016 -4.96962e-017 1.55301e-017
RightArm  15.7629 -45.9006 84.1511
RightForeArm  -42.9205 19.177 -9.84549
RightHand  1.09048 -10.3809 -3.73775
LeftUpLeg  -11.0801 -5.01431 8.73453
LeftLeg  51.2911 -6.34405 7.16103
LeftFoot  14.7373 0.552657 -2.03936
LeftToes  8.73142e-011 -6.07963e-011 6.03181e-012
91
root  -57.8695 39.2762 0.331242 -129.037 82.4826 -130.869
RightUpLeg  -12.7097 5.52166 9.41391
RightLeg  14.5625 -0.699176 -2.64386
RightFoot  -5.49823 0.217978 -3.27297
RightToes  -6.40286e-010 -1.59028e-015 9.93923e-017
Spine  -3.61097 -0.283231 9.17168
Spine1  9.44939 -0.318052 0.682939
HEad  -11.9147 -4.23197 1.79116
LeftShoulder1  9.93923e-017 0 1.22299e-017
LeftArm  18.0117 44.0136 -80.8379
LeftForeArm  -30.1951 -19.2283 2.01171
LeftHand  0.816929 5.61141 -2.19056
RightShoulder  1.98785e-016 -4.96962e-017 1.55301e-017
RightArm  22.2935 -43.3705 84.3128
RightForeArm  -49.3448 19.9526 -14.307
RightHand  1.08716 -10.4163 -3.55455
LeftUpLeg  -15.7851 -4.41984 7.38565
LeftLeg  52.8374 -7.40634 6.1532
LeftFoot  11.2539 0.66108 -2.88165
LeftToes  8.73142e-011 -6.07963e-011 6.03181e-012
92
root  -56.6093 39.3923 0.416715 -131.23 83.3773 -132.995
RightUpLeg  -9.91908 4.55324 8.99777
RightLeg  13.3881 0.431352 -2.20926
RightFoot  -6.86722 0.190041 -3.49397
RightToes  -6.40286e-010 -1.59028e-015 9.93923e-017
Spine  -3.68977 0.632158 9.49333
Spine1  9.26561 0.891592 -0.409963
HEad  -11.1884 -5.05726 1.79625
LeftShoulder1  9.93923e-017 0 1.22299e-017
LeftArm  17.9478 46.5053 -78.9085
LeftForeArm  -27.8893 -18.2772 0.715215
LeftHand  0.856452 5.80787 -3.50275
RightShoulder  1.98785e-016 -4.96962e-017 1.55301e-017
RightArm  26.2918 -41.0525 84.2507
RightForeArm  -53.5874 20.6511 -18.7628
RightHand  1.07434 -10.2878 -3.64984
LeftUpLeg  -20.1278 -3.89701 5.96382
LeftLeg  51.8295 -8.92539 3.69321
LeftFoot  8.51947 0.834344 -4.17056
LeftToes  8.73142e-011 -6.07963e-011 6.03181e-012
93
root  -55.3306 39.4313 0.468189 -130.103 84.3857 -131.8
RightUpLeg  -7.27941 3.59157 8.57159
RightLeg  12.5626 1.90145 -1.71429
RightFoot  -8.45126 0.163577 -4.03861
RightToes  -6.40286e-010 -1.59028e-015 9.93923e-017
Spine  -3.60602 1.67264 10.2743
Spine1  8.8908 2.24582 -1.92901
HEad  -10.7166 -5.76522 1.60511
LeftShoulder1  9.93923e-017 0 1.22299e-017
LeftArm  18.4844 48.9772 -76.5388
LeftForeArm  -26.7101 -17.5566 -0.196678
LeftHand  0.903398 6.1526 -4.50539
RightShoulder  1.98785e-016 -4.96962e-017 1.55301e-017
RightArm  24.6159 -38.6376 83.6199
RightForeArm  -52.2644 22.2879 -21.3474
RightHand  1.05993 -10.117 -3.86223
LeftUpLeg  -23.7546 -3.04093 4.72393
LeftLeg  48.4148 -10.2302 1.3863
LeftFoot  6.08103 0.850188 -4.84008
LeftToes  8.73142e-011 -6.07963e-011 6.03181e-012
94
root  -54.0498 39.4394 0.500092 -124.081 85.52 -125.621
RightUpLeg  -4.51744 2.94886 8.14327
RightLeg  11.6461 3.37871 -1.30243
RightFoot  -9.85383 0.131711 -4.64281
RightToes  -6.40286e-010 -1.59028e-015 9.93923e-017
Spine  -3.4368 2.70528 11.0665
Spine1  8.68644 3.56229 -3.63484
HEad  -10.7857 -6.22526 1.36879
LeftShoulder1  9.93923e-017 0 1.22299e-017
LeftArm  18.4169 51.224 -73.8028
LeftForeArm  -25.7013 -16.7808 -1.03565
LeftHand  0.934558 6.42163 -5.14886
RightShoulder  1.98785e-016 -4.96962e-017 1.55301e-017
RightArm  21.5952 -35.6888 82.6622
RightForeArm  -49.2182 24.4939 -22.7452
RightHand  1.0777 -10.162 -4.21711
LeftUpLeg  -26.3566 -1.55009 3.65738
LeftLeg  42.2618 -10.8714 0.101002
LeftFoot  4.21079 0.814536 -5.17026
LeftToes  8.73142e-011 -6.07963e-011 6.03181e-012
95
root  -52.7799 39.3747 0.513908 -111.251 86.3087 -112.494
RightUpLeg  -1.82184 2.57556 7.95668
RightLeg  11.1003 4.68122 -1.05644
RightFoot  -11.3604 0.0732035 -4.81929
RightToes  -6.40286e-010 -1.59028e-015 9.93923e-017
Spine  -3.17014 3.51872 12.0043
Spine1  8.71021 4.62766 -5.20333
HEad  -11.1629 -6.29185 1.23582
LeftShoulder1  9.93923e-017 0 1.22299e-017
LeftArm  16.2362 53.1811 -70.8379
LeftForeArm  -22.9747 -15.3686 -2.18094
LeftHand  0.951702 6.57587 -5.64704
RightShoulder  1.98785e-016 -4.96962e-017 1.55301e-017
RightArm  20.6795 -32.12 81.835
RightForeArm  -47.5894 26.1131 -23.894
RightHand  1.13302 -10.3955 -4.91129
LeftUpLeg  -27.7134 -0.134999 3.01301
LeftLeg  33.4525 -11.0002 -0.505798
LeftFoot  4.00315 0.827563 -5.32382
LeftToes  8.73142e-011 -6.07963e-011 6.03181e-012
